<svg width="25" height="25" viewBox="0 0 25 25" fill="none" xmlns="http://www.w3.org/2000/svg">
<path d="M13.125 9.24273L11.8197 7.93748L14.113 5.62495H8.43748V3.75H14.113L11.8005 1.43748L13.125 0.132221L17.6802 4.68748L13.125 9.24273V9.24273M7.06728 24.1346C6.45991 24.1346 5.94349 23.9218 5.51801 23.4963C5.09254 23.0709 4.8798 22.5544 4.8798 21.9471C4.8798 21.3397 5.09254 20.8233 5.51801 20.3978C5.94349 19.9723 6.45991 19.7596 7.06728 19.7596C7.67464 19.7596 8.19106 19.9723 8.61654 20.3978C9.04202 20.8233 9.25475 21.3397 9.25475 21.9471C9.25475 22.5544 9.04202 23.0709 8.61654 23.4963C8.19106 23.9218 7.67464 24.1346 7.06728 24.1346V24.1346M19.1826 24.1346C18.5753 24.1346 18.0588 23.9218 17.6334 23.4963C17.2079 23.0709 16.9952 22.5544 16.9952 21.9471C16.9952 21.3397 17.2079 20.8233 17.6334 20.3978C18.0588 19.9723 18.5753 19.7596 19.1826 19.7596C19.79 19.7596 20.3064 19.9723 20.7319 20.3978C21.1574 20.8233 21.3701 21.3397 21.3701 21.9471C21.3701 22.5544 21.1574 23.0709 20.7319 23.4963C20.3064 23.9218 19.79 24.1346 19.1826 24.1346V24.1346M0 1.87495V0H3.57689L8.79322 11.0096H17.3148C17.387 11.0096 17.4511 10.9916 17.5072 10.9555C17.5633 10.9194 17.6113 10.8694 17.6514 10.8053L22.274 2.5H24.4085L19.2932 11.7403C19.0881 12.1009 18.8168 12.3818 18.4795 12.5829C18.1422 12.784 17.7724 12.8846 17.3701 12.8846H8.24995L6.80283 15.5288C6.73873 15.625 6.73672 15.7291 6.79682 15.8413C6.85692 15.9535 6.94707 16.0096 7.06728 16.0096H21.3701V17.8846H7.06728C6.23395 17.8846 5.60455 17.5284 5.17907 16.8161C4.7536 16.1037 4.74198 15.383 5.14422 14.6538L6.92788 11.4471L2.3798 1.87495H0V1.87495" fill="#442A20"/>
</svg>
