<svg width="22" height="22" viewBox="0 0 22 22" fill="none" xmlns="http://www.w3.org/2000/svg">
<path d="M1.90317 21.2499C1.10588 21.2499 0.539178 20.8941 0.203065 20.1826C-0.133047 19.4711 -0.0519111 18.8093 0.446474 18.1971L7.52822 9.59132V1.87495H6.03781C5.77219 1.87495 5.54954 1.78507 5.36986 1.60531C5.19018 1.42554 5.10034 1.20279 5.10034 0.937056C5.10034 0.671317 5.19018 0.448707 5.36986 0.269224C5.54954 0.0897414 5.77219 0 6.03781 0H15.2685C15.5341 0 15.7568 0.0898819 15.9365 0.269646C16.1162 0.449409 16.206 0.67216 16.206 0.937899C16.206 1.20364 16.1162 1.42625 15.9365 1.60573C15.7568 1.78521 15.5341 1.87495 15.2685 1.87495H13.7781V9.59132L20.8599 18.1971C21.3583 18.8093 21.4394 19.4711 21.1033 20.1826C20.7672 20.8941 20.2005 21.2499 19.4032 21.2499H1.90317V21.2499M1.90317 19.375H19.4032L11.9032 10.25V1.87495H9.40317V10.25L1.90317 19.375V19.375M10.6532 10.625V10.625V10.625V10.625V10.625V10.625V10.625V10.625" fill="#442A20"/>
</svg>
