<svg width="21" height="20" viewBox="0 0 21 20" fill="none" xmlns="http://www.w3.org/2000/svg">
<path d="M2.80768 17.1629C1.92627 16.2774 1.23797 15.2593 0.742785 14.1085C0.247595 12.9577 0 11.7679 0 10.5391C0 9.30672 0.235977 8.08397 0.70793 6.87083C1.17988 5.6577 1.9423 4.52469 2.99518 3.47181C3.7564 2.71059 4.70953 2.08359 5.85456 1.5908C6.9996 1.09801 8.29648 0.722617 9.7452 0.464607C11.1939 0.206598 12.7728 0.0563598 14.482 0.0138933C16.1911 -0.0285732 17.9839 0.0263133 19.8605 0.178553C19.9951 1.97019 20.0412 3.71095 19.9987 5.40084C19.9562 7.09074 19.8084 8.66645 19.5552 10.128C19.302 11.5895 18.9322 12.9056 18.4458 14.0763C17.9595 15.247 17.3333 16.2153 16.5672 16.9814C15.5352 18.0214 14.4314 18.7806 13.2559 19.259C12.0805 19.7374 10.8899 19.9765 9.68433 19.9765C8.42039 19.9765 7.17865 19.7289 5.95911 19.2338C4.73956 18.7386 3.68908 18.0483 2.80768 17.1629V17.1629M5.61051 16.9573C6.23872 17.3516 6.90258 17.6408 7.60211 17.8251C8.30163 18.0094 8.99675 18.1016 9.68745 18.1016C10.6512 18.1016 11.6045 17.9109 12.5473 17.5295C13.4901 17.1481 14.3846 16.5263 15.2307 15.6641C15.6042 15.2891 15.9829 14.763 16.3668 14.086C16.7507 13.4089 17.0826 12.5235 17.3628 11.4297C17.6429 10.336 17.8556 9.01305 18.0008 7.46096C18.1461 5.90888 18.1746 4.05992 18.0865 1.91409C17.0657 1.87242 15.9106 1.8608 14.6213 1.87923C13.3321 1.89766 12.046 2.00263 10.7632 2.19414C9.48032 2.38564 8.26798 2.68572 7.12615 3.09438C5.98433 3.50303 5.06085 4.05992 4.35572 4.76505C3.42624 5.69453 2.7804 6.63564 2.41822 7.58837C2.05604 8.54109 1.87495 9.44454 1.87495 10.2987C1.87495 11.4798 2.10532 12.5479 2.56606 13.503C3.0268 14.4582 3.50637 15.1673 4.00478 15.6304C4.70348 14.0599 5.68544 12.5531 6.95065 11.11C8.21586 9.66693 9.81882 8.40772 11.7595 7.33239C10.2916 8.61284 9.03437 10.0191 7.98791 11.5511C6.94144 13.0832 6.14897 14.8852 5.61051 16.9573V16.9573M5.61051 16.9573V16.9573V16.9573V16.9573V16.9573V16.9573V16.9573V16.9573V16.9573V16.9573V16.9573V16.9573M5.61051 16.9573V16.9573V16.9573V16.9573V16.9573V16.9573V16.9573V16.9573V16.9573V16.9573V16.9573V16.9573V16.9573V16.9573V16.9573V16.9573V16.9573V16.9573V16.9573V16.9573V16.9573V16.9573" fill="#442A20"/>
</svg>
