<svg width="27" height="19" viewBox="0 0 27 19" fill="none" xmlns="http://www.w3.org/2000/svg">
<path d="M5.62213 18.822C4.64645 18.822 3.81807 18.4808 3.13699 17.7984C2.4559 17.116 2.11536 16.2873 2.11536 15.3124H0V2.2596C0 1.62819 0.218748 1.09374 0.656244 0.656244C1.09374 0.218748 1.62819 0 2.2596 0H19.2788V4.7596H22.5961L26.6346 10.1683V15.3124H24.375C24.375 16.2873 24.0335 17.116 23.3505 17.7984C22.6675 18.4808 21.8382 18.822 20.8625 18.822C19.8869 18.822 19.0585 18.4808 18.3774 17.7984C17.6963 17.116 17.3558 16.2873 17.3558 15.3124H9.13455C9.13455 16.29 8.79307 17.1193 8.11009 17.8004C7.42712 18.4815 6.5978 18.822 5.62213 18.822V18.822M5.62495 16.9471C6.0833 16.9471 6.47032 16.7892 6.78603 16.4735C7.10174 16.1578 7.2596 15.7708 7.2596 15.3124C7.2596 14.8541 7.10174 14.4671 6.78603 14.1514C6.47032 13.8356 6.0833 13.6778 5.62495 13.6778C5.16661 13.6778 4.77959 13.8356 4.46388 14.1514C4.14817 14.4671 3.99031 14.8541 3.99031 15.3124C3.99031 15.7708 4.14817 16.1578 4.46388 16.4735C4.77959 16.7892 5.16661 16.9471 5.62495 16.9471V16.9471M1.87495 13.4375H2.77879C3.04481 12.9743 3.42903 12.5861 3.93143 12.2728C4.43384 11.9595 4.99835 11.8028 5.62495 11.8028C6.23553 11.8028 6.79604 11.9575 7.30646 12.2668C7.81688 12.5761 8.2051 12.9663 8.47112 13.4375H17.4038V1.87495H2.2596C2.16344 1.87495 2.07529 1.91502 1.99516 1.99516C1.91502 2.07529 1.87495 2.16344 1.87495 2.2596V13.4375V13.4375M20.8654 16.9471C21.3237 16.9471 21.7107 16.7892 22.0264 16.4735C22.3421 16.1578 22.5 15.7708 22.5 15.3124C22.5 14.8541 22.3421 14.4671 22.0264 14.1514C21.7107 13.8356 21.3237 13.6778 20.8654 13.6778C20.407 13.6778 20.02 13.8356 19.7043 14.1514C19.3886 14.4671 19.2307 14.8541 19.2307 15.3124C19.2307 15.7708 19.3886 16.1578 19.7043 16.4735C20.02 16.7892 20.407 16.9471 20.8654 16.9471V16.9471M19.2788 10.9375H24.8798L21.6346 6.63455H19.2788V10.9375V10.9375M9.6394 7.65622V7.65622V7.65622V7.65622V7.65622V7.65622V7.65622V7.65622V7.65622V7.65622V7.65622V7.65622V7.65622" fill="#442A20"/>
</svg>
