<svg width="1924" height="610" viewBox="0 0 1924 610" fill="none" xmlns="http://www.w3.org/2000/svg">
<path d="M344.942 119.809C349.587 129.976 336.724 148.462 331.365 150.772C323.993 156.094 313.654 163.855 299.209 166.947C280.987 172.493 259.55 166.295 238.113 154.469C213.817 141.068 192.737 130.901 177.374 128.128C160.224 126.742 152.363 130.901 137 130.901M344.942 119.809C342.083 116.575 338.36 115.264 340.297 107.332C341.764 101.324 348.753 100.862 354.946 101.324M344.942 119.809C344.942 119.809 351.582 122.406 355.66 122.12C360.598 121.775 364.401 120.571 368.166 117.961C371.93 115.351 374.253 113.671 376.74 109.18C378.523 105.963 379.317 105.242 378.884 101.324C378.17 94.8544 373.861 91.0245 368.88 87.9224C359.233 81.9148 354.485 81.4408 344.942 81.9147C340.622 82.1292 337.478 82.6737 334.58 83.7494M137 130.901C137 130.901 149.68 129.712 157.723 128.128C165.46 126.604 174.544 123.839 177.374 123.507C185.948 122.498 198.454 124.431 198.454 124.431C198.454 124.431 214.174 126.741 225.965 131.363C235.397 135.06 248.831 143.378 248.831 143.378C248.831 143.378 257.942 148.994 264.195 150.773C271.293 152.791 277.057 153.083 282.774 152.159C288.848 151.177 295.279 149.773 301.353 146.613C306.395 143.99 310.47 141.53 313.143 138.295C316.675 134.02 319.574 131.363 319.574 124.893C319.574 118.436 316.597 111.953 313.858 109.643L311.357 106.87M137 130.901C149.148 129.052 168.17 124.983 177.731 120.272C185.234 116.575 195.246 114.854 206.671 114.726C215.362 114.629 220.491 115.076 228.823 117.499C233.817 118.951 238.47 120.272 241.685 122.12C244.901 123.969 250.087 126.646 255.62 129.514C258.987 131.26 260.703 132.864 264.195 134.136C267.728 135.422 273.484 135.984 273.484 135.984M311.357 106.87L315.644 99.0137C315.644 99.0137 319.659 93.0609 324.934 89.3089C328.635 86.6755 331.466 84.9056 334.58 83.7494M311.357 106.87C309.57 104.713 304.73 102.627 300.281 101.324C298.347 100.758 296.02 100.543 293.842 100.498M273.484 135.984C270.179 135.246 267.768 134.598 265.266 132.749C261.047 129.631 260.264 127.204 259.907 121.196C259.631 116.552 263.123 111.491 265.981 109.181L266.141 109.051C269.459 106.369 271.696 104.56 275.628 102.711C276.66 102.225 277.913 101.868 279.201 101.604M273.484 135.984C278.021 136.998 280.767 137.199 285.275 135.984C288.169 135.204 289.918 134.919 292.063 132.287C293.965 129.954 294.406 129.548 294.564 127.204C294.723 124.857 294.062 123.165 292.778 121.631C291.059 119.579 287.256 119.369 284.917 119.347C282.092 119.322 279.201 122.582 279.201 122.582M334.58 83.7494C333.032 79.2867 326.363 70.8236 315.644 65.7401C310.3 63.2056 308.973 63.0573 304.568 62.1849C297.258 60.7373 292.42 60.4781 285.632 62.1849C278.843 63.8917 277.772 63.4295 270.269 68.5129C265.812 71.5322 263.48 75.907 263.123 82.3769C262.765 88.8467 266.696 94.3923 271.698 97.6273C274.208 99.2508 279.201 101.604 279.201 101.604M279.201 101.604C282.818 100.862 286.704 100.862 286.704 100.862C286.704 100.862 289.714 100.465 293.269 100.491M293.842 100.498C293.65 100.495 293.458 100.492 293.269 100.491M293.842 100.498C293.641 100.518 293.448 100.516 293.269 100.491M293.842 100.498C295.862 100.302 298.835 97.9125 299.923 94.3923C300.638 92.0817 300.46 90.1131 298.852 87.4604C296.725 83.9533 293.401 82.3676 289.919 81.9148C287.971 81.6613 284.917 81.9147 284.917 81.9147M1609.06 255.809C1604.41 265.976 1617.28 284.462 1622.64 286.772C1630.01 292.094 1640.35 299.855 1654.79 302.947C1673.01 308.493 1694.45 302.295 1715.89 290.469C1740.18 277.068 1761.26 266.901 1776.63 264.128C1793.78 262.742 1801.64 266.901 1817 266.901M1609.06 255.809C1611.92 252.575 1615.64 251.264 1613.7 243.332C1612.24 237.324 1605.25 236.862 1599.05 237.324M1609.06 255.809C1609.06 255.809 1602.42 258.406 1598.34 258.12C1593.4 257.775 1589.6 256.571 1585.83 253.961C1582.07 251.351 1579.75 249.671 1577.26 245.18C1575.48 241.963 1574.68 241.242 1575.12 237.324C1575.83 230.854 1580.14 227.025 1585.12 223.922C1594.77 217.915 1599.51 217.441 1609.06 217.915C1613.38 218.129 1616.52 218.674 1619.42 219.749M1817 266.901C1817 266.901 1804.32 265.712 1796.28 264.128C1788.54 262.604 1779.46 259.839 1776.63 259.507C1768.05 258.498 1755.55 260.431 1755.55 260.431C1755.55 260.431 1739.83 262.741 1728.04 267.363C1718.6 271.06 1705.17 279.378 1705.17 279.378C1705.17 279.378 1696.06 284.994 1689.81 286.773C1682.71 288.791 1676.94 289.083 1671.23 288.159C1665.15 287.177 1658.72 285.773 1652.65 282.613C1647.61 279.99 1643.53 277.53 1640.86 274.295C1637.32 270.02 1634.43 267.363 1634.43 260.893C1634.43 254.436 1637.4 247.953 1640.14 245.643L1642.64 242.87M1817 266.901C1804.85 265.052 1785.83 260.983 1776.27 256.272C1768.77 252.575 1758.75 250.854 1747.33 250.726C1738.64 250.629 1733.51 251.076 1725.18 253.499C1720.18 254.951 1715.53 256.272 1712.31 258.12C1709.1 259.969 1703.91 262.646 1698.38 265.514C1695.01 267.26 1693.3 268.864 1689.81 270.136C1686.27 271.422 1680.52 271.984 1680.52 271.984M1642.64 242.87L1638.36 235.014C1638.36 235.014 1634.34 229.061 1629.07 225.309C1625.36 222.675 1622.53 220.906 1619.42 219.749M1642.64 242.87C1644.43 240.713 1649.27 238.627 1653.72 237.324C1655.65 236.758 1657.98 236.543 1660.16 236.498M1680.52 271.984C1683.82 271.246 1686.23 270.598 1688.73 268.749C1692.95 265.631 1693.74 263.204 1694.09 257.196C1694.37 252.552 1690.88 247.491 1688.02 245.181L1687.86 245.051C1684.54 242.369 1682.3 240.56 1678.37 238.711C1677.34 238.225 1676.09 237.868 1674.8 237.604M1680.52 271.984C1675.98 272.998 1673.23 273.199 1668.73 271.984C1665.83 271.204 1664.08 270.919 1661.94 268.287C1660.03 265.954 1659.59 265.548 1659.44 263.204C1659.28 260.857 1659.94 259.165 1661.22 257.631C1662.94 255.579 1666.74 255.369 1669.08 255.347C1671.91 255.322 1674.8 258.582 1674.8 258.582M1619.42 219.749C1620.97 215.287 1627.64 206.824 1638.36 201.74C1643.7 199.206 1645.03 199.057 1649.43 198.185C1656.74 196.737 1661.58 196.478 1668.37 198.185C1675.16 199.892 1676.23 199.429 1683.73 204.513C1688.19 207.532 1690.52 211.907 1690.88 218.377C1691.23 224.847 1687.3 230.392 1682.3 233.627C1679.79 235.251 1674.8 237.604 1674.8 237.604M1674.8 237.604C1671.18 236.862 1667.3 236.862 1667.3 236.862C1667.3 236.862 1664.29 236.465 1660.73 236.491M1660.16 236.498C1660.35 236.495 1660.54 236.492 1660.73 236.491M1660.16 236.498C1660.36 236.518 1660.55 236.516 1660.73 236.491M1660.16 236.498C1658.14 236.302 1655.17 233.913 1654.08 230.392C1653.36 228.082 1653.54 226.113 1655.15 223.46C1657.28 219.953 1660.6 218.368 1664.08 217.915C1666.03 217.661 1669.08 217.915 1669.08 217.915M651.058 139.809C646.413 149.976 659.276 168.462 664.635 170.772C672.007 176.094 682.346 183.855 696.791 186.947C715.013 192.493 736.45 186.295 757.887 174.469C782.183 161.068 803.263 150.901 818.626 148.128C835.776 146.742 843.637 150.901 859 150.901M651.058 139.809C653.917 136.575 657.64 135.264 655.703 127.332C654.236 121.324 647.247 120.862 641.054 121.324M651.058 139.809C651.058 139.809 644.418 142.406 640.34 142.12C635.402 141.775 631.599 140.571 627.834 137.961C624.07 135.351 621.747 133.671 619.26 129.18C617.477 125.963 616.683 125.242 617.116 121.324C617.83 114.854 622.139 111.024 627.12 107.922C636.767 101.915 641.515 101.441 651.058 101.915C655.378 102.129 658.522 102.674 661.42 103.749M859 150.901C859 150.901 846.32 149.712 838.277 148.128C830.54 146.604 821.456 143.839 818.626 143.507C810.051 142.498 797.546 144.431 797.546 144.431C797.546 144.431 781.826 146.741 770.035 151.363C760.603 155.06 747.169 163.378 747.169 163.378C747.169 163.378 738.058 168.994 731.805 170.773C724.707 172.791 718.943 173.083 713.226 172.159C707.152 171.177 700.721 169.773 694.647 166.613C689.605 163.99 685.53 161.53 682.857 158.295C679.325 154.02 676.426 151.363 676.426 144.893C676.426 138.436 679.403 131.953 682.142 129.643L684.643 126.87M859 150.901C846.852 149.052 827.83 144.983 818.269 140.272C810.766 136.575 800.754 134.854 789.329 134.726C780.638 134.629 775.509 135.076 767.177 137.499C762.183 138.951 757.53 140.272 754.315 142.12C751.099 143.969 745.913 146.646 740.38 149.514C737.013 151.26 735.297 152.864 731.805 154.136C728.272 155.422 722.516 155.984 722.516 155.984M684.643 126.87L680.356 119.014C680.356 119.014 676.341 113.061 671.066 109.309C667.365 106.675 664.534 104.906 661.42 103.749M684.643 126.87C686.43 124.713 691.27 122.627 695.719 121.324C697.653 120.758 699.98 120.543 702.158 120.498M722.516 155.984C725.821 155.246 728.232 154.598 730.734 152.749C734.953 149.631 735.736 147.204 736.093 141.196C736.369 136.552 732.877 131.491 730.019 129.181L729.859 129.051C726.541 126.369 724.304 124.56 720.372 122.711C719.34 122.225 718.087 121.868 716.799 121.604M722.516 155.984C717.979 156.998 715.233 157.199 710.725 155.984C707.831 155.204 706.082 154.919 703.937 152.287C702.035 149.954 701.594 149.548 701.436 147.204C701.277 144.857 701.938 143.165 703.222 141.631C704.941 139.579 708.744 139.369 711.083 139.347C713.908 139.322 716.799 142.582 716.799 142.582M661.42 103.749C662.968 99.2867 669.637 90.8236 680.356 85.7401C685.7 83.2056 687.026 83.0573 691.432 82.1849C698.742 80.7373 703.58 80.4781 710.368 82.1849C717.157 83.8917 718.228 83.4295 725.731 88.5129C730.188 91.5322 732.52 95.907 732.877 102.377C733.235 108.847 729.304 114.392 724.302 117.627C721.792 119.251 716.799 121.604 716.799 121.604M716.799 121.604C713.182 120.862 709.296 120.862 709.296 120.862C709.296 120.862 706.286 120.465 702.731 120.491M702.158 120.498C702.35 120.495 702.542 120.492 702.731 120.491M702.158 120.498C702.359 120.518 702.552 120.516 702.731 120.491M702.158 120.498C700.138 120.302 697.165 117.913 696.077 114.392C695.362 112.082 695.54 110.113 697.148 107.46C699.275 103.953 702.599 102.368 706.081 101.915C708.029 101.661 711.083 101.915 711.083 101.915M1727.94 340.751C1724.81 347.623 1733.48 360.118 1737.08 361.679C1742.05 365.277 1749.01 370.522 1758.74 372.612C1771.02 376.361 1785.46 372.171 1799.9 364.178C1816.26 355.12 1830.46 348.248 1840.81 346.373C1852.36 345.436 1857.65 348.248 1868 348.248M1727.94 340.751C1729.87 338.564 1732.37 337.679 1731.07 332.317C1730.08 328.256 1725.37 327.944 1721.2 328.256M1727.94 340.751C1727.94 340.751 1723.47 342.506 1720.72 342.313C1717.39 342.079 1714.83 341.265 1712.3 339.501C1709.76 337.737 1708.2 336.602 1706.52 333.566C1705.32 331.392 1704.79 330.905 1705.08 328.256C1705.56 323.883 1708.46 321.294 1711.82 319.198C1718.31 315.137 1721.51 314.816 1727.94 315.137C1730.85 315.282 1732.97 315.65 1734.92 316.377M1868 348.248C1868 348.248 1859.46 347.444 1854.04 346.373C1848.83 345.343 1842.71 343.475 1840.81 343.25C1835.03 342.568 1826.61 343.875 1826.61 343.875C1826.61 343.875 1816.02 345.436 1808.08 348.56C1801.72 351.059 1792.68 356.682 1792.68 356.682C1792.68 356.682 1786.54 360.478 1782.33 361.68C1777.55 363.044 1773.66 363.241 1769.81 362.617C1765.72 361.953 1761.39 361.004 1757.3 358.868C1753.9 357.095 1751.16 355.432 1749.36 353.246C1746.98 350.356 1745.03 348.56 1745.03 344.187C1745.03 339.823 1747.03 335.441 1748.88 333.879L1750.56 332.005M1868 348.248C1859.82 346.998 1847.01 344.248 1840.57 341.063C1835.51 338.564 1828.77 337.402 1821.07 337.315C1815.22 337.249 1811.76 337.551 1806.15 339.189C1802.79 340.171 1799.65 341.063 1797.49 342.313C1795.32 343.562 1791.83 345.372 1788.1 347.311C1785.84 348.491 1784.68 349.575 1782.33 350.434C1779.95 351.304 1776.07 351.684 1776.07 351.684M1750.56 332.005L1747.67 326.694C1747.67 326.694 1744.97 322.671 1741.42 320.135C1738.92 318.355 1737.02 317.158 1734.92 316.377M1750.56 332.005C1751.76 330.547 1755.02 329.137 1758.02 328.256C1759.32 327.873 1760.89 327.728 1762.36 327.698M1776.07 351.684C1778.3 351.184 1779.92 350.747 1781.61 349.497C1784.45 347.389 1784.97 345.749 1785.22 341.688C1785.4 338.549 1783.05 335.128 1781.12 333.566L1781.02 333.479C1778.78 331.666 1777.28 330.443 1774.63 329.193C1773.93 328.865 1773.09 328.623 1772.22 328.445M1776.07 351.684C1773.01 352.369 1771.17 352.505 1768.13 351.684C1766.18 351.157 1765 350.964 1763.56 349.185C1762.28 347.608 1761.98 347.333 1761.87 345.749C1761.77 344.163 1762.21 343.019 1763.08 341.982C1764.23 340.595 1766.79 340.453 1768.37 340.439C1770.27 340.421 1772.22 342.625 1772.22 342.625M1734.92 316.377C1735.96 313.36 1740.45 307.64 1747.67 304.204C1751.27 302.491 1752.17 302.391 1755.13 301.801C1760.06 300.822 1763.32 300.647 1767.89 301.801C1772.46 302.955 1773.18 302.642 1778.24 306.078C1781.24 308.119 1782.81 311.076 1783.05 315.449C1783.29 319.822 1780.64 323.571 1777.27 325.757C1775.58 326.855 1772.22 328.445 1772.22 328.445M1772.22 328.445C1769.78 327.944 1767.17 327.944 1767.17 327.944C1767.17 327.944 1765.14 327.675 1762.74 327.693M1762.36 327.698C1762.49 327.695 1762.62 327.694 1762.74 327.693M1762.36 327.698C1762.49 327.711 1762.62 327.71 1762.74 327.693M1762.36 327.698C1761 327.565 1759 325.95 1758.26 323.571C1757.78 322.009 1757.9 320.678 1758.98 318.885C1760.42 316.515 1762.66 315.443 1765 315.137C1766.31 314.966 1768.37 315.137 1768.37 315.137M1175.94 466.751C1172.81 473.623 1181.48 486.118 1185.08 487.679C1190.05 491.277 1197.01 496.522 1206.74 498.612C1219.02 502.361 1233.46 498.171 1247.9 490.178C1264.26 481.12 1278.46 474.248 1288.81 472.373C1300.36 471.436 1305.65 474.248 1316 474.248M1175.94 466.751C1177.87 464.564 1180.37 463.679 1179.07 458.317C1178.08 454.256 1173.37 453.944 1169.2 454.256M1175.94 466.751C1175.94 466.751 1171.47 468.506 1168.72 468.313C1165.39 468.079 1162.83 467.265 1160.3 465.501C1157.76 463.737 1156.2 462.602 1154.52 459.566C1153.32 457.392 1152.79 456.905 1153.08 454.256C1153.56 449.883 1156.46 447.294 1159.82 445.198C1166.31 441.137 1169.51 440.816 1175.94 441.137C1178.85 441.282 1180.97 441.65 1182.92 442.377M1316 474.248C1316 474.248 1307.46 473.444 1302.04 472.373C1296.83 471.343 1290.71 469.475 1288.81 469.25C1283.03 468.568 1274.61 469.875 1274.61 469.875C1274.61 469.875 1264.02 471.436 1256.08 474.56C1249.72 477.059 1240.68 482.682 1240.68 482.682C1240.68 482.682 1234.54 486.478 1230.33 487.68C1225.55 489.044 1221.66 489.241 1217.81 488.617C1213.72 487.953 1209.39 487.004 1205.3 484.868C1201.9 483.095 1199.16 481.432 1197.36 479.246C1194.98 476.356 1193.03 474.56 1193.03 470.187C1193.03 465.823 1195.03 461.441 1196.88 459.879L1198.56 458.005M1316 474.248C1307.82 472.998 1295.01 470.248 1288.57 467.063C1283.51 464.564 1276.77 463.402 1269.07 463.315C1263.22 463.249 1259.76 463.551 1254.15 465.189C1250.79 466.171 1247.65 467.063 1245.49 468.313C1243.32 469.562 1239.83 471.372 1236.1 473.311C1233.84 474.491 1232.68 475.575 1230.33 476.434C1227.95 477.304 1224.07 477.684 1224.07 477.684M1198.56 458.005L1195.67 452.694C1195.67 452.694 1192.97 448.671 1189.42 446.135C1186.92 444.355 1185.02 443.158 1182.92 442.377M1198.56 458.005C1199.76 456.547 1203.02 455.137 1206.02 454.256C1207.32 453.873 1208.89 453.728 1210.36 453.698M1224.07 477.684C1226.3 477.184 1227.92 476.747 1229.61 475.497C1232.45 473.389 1232.97 471.749 1233.22 467.688C1233.4 464.549 1231.05 461.128 1229.12 459.566L1229.02 459.479C1226.78 457.666 1225.28 456.443 1222.63 455.193C1221.93 454.865 1221.09 454.623 1220.22 454.445M1224.07 477.684C1221.01 478.369 1219.17 478.505 1216.13 477.684C1214.18 477.157 1213 476.964 1211.56 475.185C1210.28 473.608 1209.98 473.333 1209.87 471.749C1209.77 470.163 1210.21 469.019 1211.08 467.982C1212.23 466.595 1214.79 466.453 1216.37 466.439C1218.27 466.421 1220.22 468.625 1220.22 468.625M1182.92 442.377C1183.96 439.36 1188.45 433.64 1195.67 430.204C1199.27 428.491 1200.17 428.391 1203.13 427.801C1208.06 426.822 1211.32 426.647 1215.89 427.801C1220.46 428.955 1221.18 428.642 1226.24 432.078C1229.24 434.119 1230.81 437.076 1231.05 441.449C1231.29 445.822 1228.64 449.571 1225.27 451.757C1223.58 452.855 1220.22 454.445 1220.22 454.445M1220.22 454.445C1217.78 453.944 1215.17 453.944 1215.17 453.944C1215.17 453.944 1213.14 453.675 1210.74 453.693M1210.36 453.698C1210.49 453.695 1210.62 453.694 1210.74 453.693M1210.36 453.698C1210.49 453.711 1210.62 453.71 1210.74 453.693M1210.36 453.698C1209 453.565 1207 451.95 1206.26 449.571C1205.78 448.009 1205.9 446.678 1206.98 444.885C1208.42 442.515 1210.66 441.443 1213 441.137C1214.31 440.966 1216.37 441.137 1216.37 441.137M248.049 496.804C251.725 488.99 241.546 474.784 237.305 473.008C231.472 468.918 223.291 462.954 211.86 460.578C197.441 456.316 178.718 458.364 163.513 470.167C147.5 482.597 108 500.71 108 500.71M248.049 496.804C245.787 499.29 242.841 500.297 244.374 506.393C245.534 511.01 251.065 511.365 255.965 511.01M248.049 496.804C248.049 496.804 253.303 494.809 256.531 495.028C260.438 495.293 263.448 496.219 266.426 498.224C269.405 500.23 271.243 501.521 273.212 504.972C274.622 507.445 275.251 507.999 274.908 511.01C274.343 515.982 270.934 518.926 266.992 521.31C259.358 525.927 255.601 526.291 248.049 525.927C244.631 525.762 242.143 525.343 239.85 524.517M221.473 506.748L224.865 512.786C224.865 512.786 228.043 517.361 232.216 520.244C235.146 522.268 237.385 523.628 239.85 524.517M221.473 506.748L223.452 504.617C225.619 502.841 227.975 497.859 227.975 492.897C227.975 487.925 225.681 485.883 222.886 482.597C220.771 480.111 217.546 478.22 213.556 476.205C208.75 473.776 203.661 472.697 198.854 471.943C194.331 471.232 189.769 471.457 184.152 473.008C179.205 474.375 171.995 478.691 171.995 478.691C171.995 478.691 162.944 484.046 157 487.214C150.652 490.598 142.786 492.582 137 494.673C131.214 496.763 111.728 500.434 108 500.71M221.473 506.748C220.059 508.406 216.229 510.009 212.708 511.01C211.178 511.445 209.336 511.611 207.613 511.645M191.503 484.373C188.888 484.941 186.98 485.439 185.001 486.859C181.662 489.256 181.042 491.121 180.76 495.738C180.541 499.307 183.304 503.197 185.566 504.972L185.692 505.071C188.318 507.133 190.088 508.523 193.2 509.945C194.016 510.317 195.008 510.593 196.027 510.795M191.503 484.373C195.094 483.594 197.266 483.44 200.833 484.373C203.124 484.973 204.508 485.192 206.205 487.214C207.71 489.008 208.059 489.32 208.184 491.121C208.31 492.925 207.787 494.225 206.771 495.404C205.411 496.981 202.401 497.143 200.551 497.159C198.315 497.178 196.027 494.673 196.027 494.673M191.503 484.373C191.503 484.373 186.948 484.805 184.152 485.794C181.389 486.771 180.032 488.004 177.367 489.345C172.988 491.55 168.885 493.607 166.34 495.028C163.796 496.449 160.114 497.463 156.162 498.579C149.569 500.442 145.51 500.785 138.633 500.71C133.913 500.659 111.987 501.471 108 500.71M239.85 524.517C238.625 527.946 233.347 534.45 224.865 538.357C220.636 540.305 219.587 540.419 216.101 541.089C210.316 542.202 206.488 542.401 201.116 541.089C195.744 539.778 194.896 540.133 188.959 536.226C185.432 533.906 183.587 530.544 183.304 525.571C183.021 520.599 186.131 516.337 190.09 513.851C192.076 512.604 196.027 510.795 196.027 510.795M196.027 510.795C198.889 511.365 201.964 511.365 201.964 511.365C201.964 511.365 204.347 511.671 207.159 511.651M207.613 511.645C207.461 511.648 207.309 511.65 207.159 511.651M207.613 511.645C207.453 511.63 207.301 511.631 207.159 511.651M207.613 511.645C209.211 511.796 211.564 513.632 212.425 516.337C212.991 518.113 212.85 519.626 211.577 521.665C209.894 524.36 207.264 525.579 204.509 525.927C202.967 526.121 200.551 525.927 200.551 525.927M219.027 217.265C224.069 227.338 210.106 245.652 204.288 247.941C196.285 253.214 185.061 260.903 169.379 263.966C149.598 269.46 126.326 263.32 103.054 251.604C87.2555 243.651 72.7098 236.848 60 232.08V221.844M219.027 217.265C215.924 214.06 211.882 212.762 213.984 204.903C215.577 198.951 223.164 198.493 229.887 198.951M219.027 217.265C219.027 217.265 226.235 219.837 230.663 219.554C236.023 219.212 240.152 218.019 244.238 215.433C248.325 212.848 250.846 211.183 253.547 206.734C255.482 203.547 256.344 202.833 255.874 198.951C255.099 192.541 250.422 188.747 245.014 185.673C234.541 179.721 229.387 179.252 219.027 179.721C214.337 179.934 210.924 180.473 207.778 181.539M182.567 204.445L187.221 196.662C187.221 196.662 191.58 190.764 197.306 187.047C201.325 184.438 204.397 182.684 207.778 181.539M182.567 204.445L185.282 207.192C188.256 209.482 191.488 215.905 191.488 222.301C191.488 228.711 188.341 231.344 184.506 235.579C181.605 238.784 177.18 241.222 171.707 243.821C165.113 246.951 158.131 248.342 151.537 249.315C145.331 250.231 139.074 249.941 131.368 247.941C124.581 246.179 114.69 240.616 114.69 240.616C114.69 240.616 100.106 232.374 89.866 228.711C77.0663 224.133 60 221.844 60 221.844M182.567 204.445C180.628 202.309 175.373 200.242 170.543 198.951C168.443 198.39 165.917 198.177 163.554 198.133M60 221.844V212.62C62.8674 212.389 65.8471 212.26 68.921 212.229C78.3558 212.132 83.9239 212.575 92.9689 214.976C98.3908 216.415 103.441 217.723 106.932 219.554C110.423 221.386 116.053 224.039 122.059 226.88C125.715 228.609 127.577 230.199 131.368 231.459C135.204 232.733 141.453 233.29 141.453 233.29M141.453 233.29C137.864 232.558 135.247 231.916 132.532 230.085C127.951 226.995 127.101 224.591 126.714 218.639C126.414 214.038 130.204 209.024 133.307 206.734L133.481 206.607C137.083 203.949 139.511 202.157 143.78 200.325C144.9 199.844 146.261 199.489 147.659 199.228M141.453 233.29C146.378 234.295 149.359 234.493 154.252 233.29C157.395 232.517 159.293 232.235 161.622 229.627C163.687 227.315 164.165 226.913 164.337 224.591C164.509 222.266 163.792 220.59 162.398 219.07C160.532 217.037 156.404 216.828 153.865 216.807C150.797 216.782 147.659 220.012 147.659 220.012M207.778 181.539C206.098 177.117 198.857 168.733 187.221 163.696C181.42 161.185 179.98 161.038 175.197 160.174C167.262 158.74 162.01 158.483 154.64 160.174C147.271 161.865 146.107 161.407 137.962 166.443C133.124 169.435 130.592 173.769 130.204 180.179C129.817 186.589 134.083 192.083 139.513 195.288C142.239 196.897 147.659 199.228 147.659 199.228M147.659 199.228C151.585 198.493 155.804 198.493 155.804 198.493C155.804 198.493 159.072 198.099 162.93 198.125M163.554 198.133C163.344 198.129 163.137 198.126 162.93 198.125M163.554 198.133C163.334 198.152 163.126 198.15 162.93 198.125M163.554 198.133C165.746 197.938 168.973 195.571 170.155 192.083C170.931 189.794 170.738 187.844 168.991 185.215C166.682 181.741 163.075 180.17 159.295 179.721C157.179 179.47 153.865 179.721 153.865 179.721M152.012 421.385C155.693 414.017 145.501 400.622 141.254 398.948C135.412 395.091 127.22 389.468 115.774 387.227C101.335 383.209 78.2768 389.631 61.2899 398.2M152.012 421.385C149.747 423.729 146.797 424.678 148.332 430.426C149.494 434.78 155.032 435.115 159.94 434.78M152.012 421.385C152.012 421.385 157.274 419.503 160.506 419.71C164.418 419.96 167.432 420.833 170.415 422.724C173.398 424.615 175.238 425.833 177.21 429.087C178.622 431.418 179.251 431.94 178.908 434.78C178.342 439.468 174.928 442.243 170.981 444.491C163.337 448.844 159.574 449.188 152.012 448.844C148.589 448.689 146.098 448.294 143.802 447.515M125.4 430.761L128.797 436.454C128.797 436.454 131.979 440.768 136.158 443.486C139.091 445.395 141.334 446.677 143.802 447.515M125.4 430.761L127.381 428.752C129.552 427.077 131.911 422.38 131.911 417.701C131.911 413.013 129.614 411.087 126.815 407.989C124.697 405.645 121.468 403.862 117.472 401.962C112.659 399.672 107.563 398.655 102.75 397.943C98.2205 397.273 93.6528 397.485 88.0284 398.948C83.0741 400.236 75.8544 404.306 75.8544 404.306C75.8544 404.306 68.7641 410.333 61.2899 413.013M125.4 430.761C123.984 432.324 120.149 433.835 116.623 434.78C115.091 435.19 113.246 435.346 111.521 435.378M95.3893 409.664C92.77 410.199 90.8595 410.668 88.8777 412.008C85.5343 414.268 84.9141 416.026 84.631 420.38C84.4121 423.745 87.179 427.412 89.4439 429.087L89.5704 429.18C92.1996 431.124 93.9724 432.435 97.088 433.775C97.9057 434.127 98.8989 434.386 99.9192 434.577M95.3893 409.664C98.9847 408.929 101.16 408.784 104.732 409.664C107.026 410.229 108.412 410.436 110.111 412.343C111.618 414.034 111.968 414.328 112.093 416.026C112.219 417.727 111.695 418.953 110.678 420.064C109.316 421.551 106.302 421.704 104.449 421.719C102.21 421.738 99.9192 419.375 99.9192 419.375M95.3893 409.664C95.3893 409.664 90.828 410.071 88.0284 411.003C85.2613 411.925 83.9019 413.087 81.2336 414.352C76.8493 416.43 72.7402 418.371 70.1921 419.71C67.6441 421.05 63.9575 422.006 60 423.059M143.802 447.515C142.575 450.749 137.29 456.881 128.797 460.565C124.562 462.402 123.511 462.509 120.02 463.141C114.228 464.19 110.394 464.378 105.015 463.141C99.6361 461.905 98.7867 462.24 92.8413 458.556C89.31 456.368 87.4621 453.198 87.179 448.51C86.8959 443.821 90.0102 439.803 93.9738 437.459C95.963 436.282 99.9192 434.577 99.9192 434.577M99.9192 434.577C102.785 435.114 105.865 435.114 105.865 435.114C105.865 435.114 108.25 435.403 111.066 435.384M111.521 435.378C111.369 435.381 111.217 435.383 111.066 435.384M111.521 435.378C111.361 435.364 111.209 435.365 111.066 435.384M111.521 435.378C113.121 435.52 115.477 437.252 116.34 439.803C116.906 441.477 116.765 442.904 115.491 444.826C113.805 447.367 111.172 448.516 108.413 448.844C106.869 449.028 104.449 448.844 104.449 448.844M107.264 516.262H60.0005V90.8504H112.624M107.264 516.262H133.089M107.264 516.262V529.139M107.264 516.262V501.164M133.089 516.262H157.451V529.139M133.089 516.262V501.164H107.264M133.089 516.262V529.139M157.451 529.139V542.461H182.789V529.139H157.451ZM157.451 529.139H133.089M133.089 529.139H107.264M133.089 529.139V562L1802.42 558.892V529.139M107.264 529.139H60.0005V562H107.264V529.139ZM107.264 501.164V487.398H82.901V501.164H107.264ZM1802.42 529.139V514.485M1802.42 529.139H1823.38M1802.42 529.139H1780.99M1802.42 514.485V501.095L1823.38 501.127M1802.42 514.485H1780.99V529.139M1802.42 514.485H1823.38M1823.38 501.127L1847.25 501.164V485.621H1823.38V501.127ZM1823.38 501.127V514.485M1823.38 514.485V529.139M1823.38 514.485H1871.13V91.2945H1829.22M1823.38 529.139V558.892H1871.13V529.139H1823.38ZM1780.99 529.139H1759.55V542.461H1780.99V529.139ZM1829.22 91.2945H1806.32M1829.22 91.2945V76.1964M1829.22 91.2945V105.949M1806.32 91.2945H1783.42V76.1964M1806.32 91.2945V105.949H1829.22M1806.32 91.2945V76.1964M1783.42 76.1964V60.2101H1759.55V76.1964H1783.42ZM1783.42 76.1964H1806.32M1806.32 76.1964H1829.22M1806.32 76.1964V46.0002H136.5V75.3082M1829.22 76.1964H1876V46.0002H1829.22V76.1964ZM1829.22 105.949V120.159H1852.61V105.949H1829.22ZM136.5 75.3082V90.8504M136.5 75.3082L112.624 75.3082M136.5 75.3082L159.4 75.3082M136.5 90.8504V104.172H112.624M136.5 90.8504H159.4V75.3082M136.5 90.8504H112.624M112.624 104.172H86.3118V118.826H112.624V104.172ZM112.624 104.172V90.8504M112.624 90.8504V75.3082M112.624 75.3082V46.0002L60 46V75.3081L112.624 75.3082ZM159.4 75.3082L183.276 75.3083V61.9864H159.4V75.3082ZM745.3 285.04V227.864L791.823 180.281M745.3 285.04H769.402M745.3 285.04V324.278M936.436 101.74H868.613L847.314 123.525M936.436 101.74V143.221M936.436 101.74H984.64M769.402 285.04V265.981H791.823M769.402 285.04H791.823M936.436 265.981V285.04H791.823M936.436 265.981H915.136M936.436 265.981V143.221M791.823 285.04V265.981M791.823 180.281V265.981M791.823 180.281L812.001 159.643M791.823 265.981H812.001M812.001 265.981H915.136M812.001 265.981V243.559M812.001 159.643V243.559M812.001 159.643L829.657 141.584M812.001 159.643H915.136M915.136 265.981V243.559M812.001 243.559H915.136M915.136 159.643V243.559M915.136 159.643V143.221M847.314 123.525H915.136V141.584M847.314 123.525L829.657 141.584M936.436 143.221H915.136M915.136 143.221V141.584M745.3 324.278V384.257L791.823 432.564M745.3 324.278H769.402M915.136 505.896H862.448L826.014 468.066M915.136 505.896H936.436M915.136 505.896V485.717M936.436 505.896V485.717M936.436 505.896H984.64M915.136 324.278H936.436V342.777M915.136 324.278H812.001M915.136 324.278V342.777M769.402 324.278V342.777H791.823M769.402 324.278H791.823M936.436 342.777H915.136M936.436 342.777V453.516M791.823 342.777H812.001M791.823 342.777V324.278M791.823 342.777V432.564M812.001 342.777H915.136M812.001 342.777V324.278M812.001 342.777V363.517M915.136 342.777V363.517M791.823 324.278H812.001M791.823 432.564L812.001 453.516M812.001 453.516H915.136M812.001 453.516L826.014 468.066M812.001 453.516V363.517M936.436 453.516H915.136M936.436 453.516V468.066M915.136 453.516V468.066M915.136 453.516V363.517M826.014 468.066H915.136M936.436 468.066H915.136M936.436 468.066V485.717M915.136 468.066V485.717M915.136 485.717H936.436M812.001 363.517H915.136M984.64 505.896H1009.3M984.64 505.896V486.981M1009.3 505.896H1053.58L1091.76 468.066M1009.3 505.896V486.981M984.64 346.14V324.278H1009.3M984.64 346.14V448.16M984.64 346.14H1009.3M984.64 448.16H1009.3M984.64 448.16V468.066M1009.3 448.16H1111.85M1009.3 448.16V468.066M1009.3 448.16V363.517M1111.85 448.16L1131.5 428.692M1111.85 448.16V363.517M1111.85 448.16L1091.76 468.066M1009.3 346.14H1111.85M1009.3 346.14V363.517M1009.3 346.14V324.278M1111.85 346.14H1131.5M1111.85 346.14V363.517M1111.85 346.14V324.278M1131.5 346.14V428.692M1131.5 346.14V324.278M1131.5 346.14H1153.92V324.278M1131.5 428.692L1176.34 384.257M1176.34 384.257V324.278M1176.34 384.257V387.06M1009.3 363.517H1111.85M984.64 468.066H1009.3M984.64 468.066V486.981M1091.76 468.066H1009.3M1009.3 468.066V486.981M984.64 486.981H1009.3M1111.85 324.278H1131.5M1111.85 324.278H1009.3M1131.5 324.278H1153.92M1153.92 324.278H1176.34M1176.34 324.278V285.04M1176.34 285.04V227.864L1131.5 181.791M1176.34 285.04H1153.92M984.64 101.74V143.221M984.64 101.74H1053.58L1073.77 122.481M1153.92 285.04V265.981H1131.5M1153.92 285.04H1131.5M984.64 265.981V285.04H1131.5M984.64 265.981H1009.3M984.64 265.981V143.221M1131.5 285.04V265.981M1131.5 181.791V265.981M1131.5 181.791L1111.85 161.605M1131.5 265.981H1109.94M1109.94 265.981V243.559M1109.94 265.981H1009.3M1109.94 159.643V161.605M1109.94 159.643L1093.96 143.221M1109.94 159.643L1111.85 161.605M1109.94 161.605V243.559M1109.94 161.605H1111.85M1109.94 161.605H1009.3M1109.94 243.559H1009.3M1009.3 243.559V265.981M1009.3 243.559V161.605M1093.96 143.221H1009.3M1093.96 143.221L1073.77 122.481M1009.3 143.221V161.605M1009.3 143.221V122.481H1073.77M1009.3 143.221H984.64M915.136 141.584H829.657M1 1V609H1923V1H1ZM1062.55 81L1201 218.335V400.513L1062.55 530H862.448L724 400.513V218.335L862.448 81H1062.55Z" stroke="#CEC2BE" stroke-opacity="0.1" stroke-width="2"/>
</svg>
