<svg width="1821" height="521" viewBox="0 0 1821 521" fill="none" xmlns="http://www.w3.org/2000/svg">
<path d="M2.50046 472.762H99.9515V498.961H125.289V485.639H2.50046V518.5H49.7642V443.898H25.401V457.664H75.5887V518.5L1744.92 515.392V457.595L1789.75 457.664V442.121H1765.88V515.392H1813.63V485.639H1702.05V498.961H1723.49V470.985H1813.63V47.7945H1725.92V16.7101H1702.05V32.6964H1818.5V2.50016H1771.72V76.6585H1795.11V62.4485H1748.82V2.50016H78.9995V60.6723H28.8118V75.3263H55.124V2.50016L2.5 2.5V31.8081L125.776 31.8083V18.4864H101.9V47.3504H2.50046V472.762Z" stroke="#CECBBD" stroke-opacity="0.5" stroke-width="5"/>
</svg>
