<svg width="480" height="452" viewBox="0 0 480 452" fill="none" xmlns="http://www.w3.org/2000/svg">
<path d="M453.837 304.757L408.996 349.192M22.7996 205.54V148.364L69.3226 100.781M22.7996 205.54H46.9019M22.7996 205.54V244.778M213.936 22.2403H146.113L124.814 44.0253M213.936 22.2403V63.721M213.936 22.2403H262.14M46.9019 205.54V186.481H89.5012M46.9019 205.54H69.3226M213.936 186.481V205.54H69.3226M213.936 186.481H192.636M213.936 186.481V80.1425V63.721M69.3226 205.54V100.781M69.3226 100.781L89.5012 80.1425M89.5012 186.481H192.636M89.5012 186.481V164.059M89.5012 80.1425V164.059M89.5012 80.1425L107.157 62.0839M89.5012 80.1425H192.636M192.636 80.1425V164.059M192.636 80.1425V62.0839M192.636 186.481V164.059M89.5012 164.059H192.636M124.814 44.0253H192.636V62.0839M124.814 44.0253L107.157 62.0839M213.936 63.721H192.636M22.7996 244.778V304.757L69.3226 353.064M22.7996 244.778H46.9019M213.936 426.396H192.636M213.936 426.396V406.217M213.936 426.396H262.14M192.636 426.396H139.948L103.514 388.566M192.636 426.396V406.217M192.636 244.778H213.936V263.277M192.636 244.778H89.5012M192.636 244.778V284.017M46.9019 244.778V263.277H213.936M46.9019 244.778H69.3226M213.936 263.277V374.016M69.3226 244.778V353.064M69.3226 244.778H89.5012M69.3226 353.064L89.5012 374.016M89.5012 244.778V284.017M89.5012 374.016H213.936M89.5012 374.016L103.514 388.566M89.5012 374.016V284.017M213.936 374.016V388.566M103.514 388.566H213.936M213.936 388.566V406.217M192.636 406.217H213.936M192.636 406.217V284.017M89.5012 284.017H192.636M262.14 426.396H286.803M262.14 426.396V407.481M453.837 244.778H431.417M453.837 244.778V307.56M453.837 244.778V205.54M286.803 426.396H331.084L369.261 388.566M286.803 426.396V407.481M262.14 266.64V244.778H286.803M262.14 266.64V368.66M262.14 266.64H389.349M262.14 368.66H389.349M262.14 368.66V388.566M389.349 368.66L408.996 349.192M389.349 368.66V284.017M389.349 368.66L369.261 388.566M389.349 266.64H408.996M389.349 266.64V284.017M389.349 266.64V244.778M408.996 266.64V349.192M408.996 266.64V244.778M408.996 266.64H431.417V244.778M286.803 284.017V266.64V244.778M286.803 284.017H389.349M286.803 284.017V407.481M262.14 388.566H369.261M262.14 388.566V407.481M262.14 407.481H286.803M389.349 244.778H408.996M389.349 244.778H286.803M408.996 244.778H431.417M453.837 205.54V148.364L408.996 102.291M453.837 205.54H431.417M262.14 22.2403H286.803H331.084L351.27 42.9806M262.14 22.2403V63.721M431.417 205.54V186.481H387.439M431.417 205.54H408.996M262.14 186.481V205.54H408.996M262.14 186.481H286.803M262.14 186.481V82.1054V63.721M408.996 205.54V102.291M408.996 102.291L389.349 82.1054M387.439 80.1425V164.059M387.439 80.1425L371.456 63.721M387.439 80.1425L389.349 82.1054M387.439 186.481V164.059M387.439 186.481H286.803M387.439 164.059H286.803M286.803 164.059V186.481M286.803 164.059V82.1054M286.803 63.721H371.456M286.803 63.721V82.1054M286.803 63.721V42.9806H351.27M286.803 63.721H262.14M371.456 63.721L351.27 42.9806M192.636 62.0839H107.157M389.349 82.1054H286.803M139.948 1.5H340.052L478.5 138.835V321.013L340.052 450.5H139.948L1.5 321.013V138.835L139.948 1.5Z" stroke="#CEC2BE" stroke-opacity="0.1" stroke-width="3"/>
</svg>
