<svg width="243" height="109" viewBox="0 0 243 109" fill="none" xmlns="http://www.w3.org/2000/svg">
<path d="M0.0761719 70.4007C15.4396 70.4007 23.2999 66.2416 40.4497 67.6278C55.8131 70.4007 76.8931 80.5675 101.189 93.9694C122.626 105.795 144.063 111.993 162.285 106.447C176.73 103.355 187.069 95.5942 194.441 90.2723C199.8 87.9616 212.663 69.4764 208.018 59.3095M0.0761719 70.4007C0.0761719 70.4007 12.7557 69.2124 20.7989 67.6278C28.5358 66.1036 37.6201 63.3394 40.4497 63.0067C49.0247 61.9984 61.5298 63.931 61.5298 63.931C61.5298 63.931 77.2504 66.2415 89.041 70.863C98.4734 74.5601 111.907 82.8784 111.907 82.8784C111.907 82.8784 121.019 88.4942 127.271 90.2725C134.369 92.2914 140.133 92.5832 145.85 91.6589C151.924 90.6769 158.355 89.2733 164.429 86.1133C169.471 83.4903 173.547 81.0299 176.219 77.7949C179.751 73.5198 182.65 70.863 182.65 64.3931C182.65 57.9365 179.673 51.4534 176.934 49.1427L174.433 46.3699M0.0761719 70.4007C12.224 68.5522 31.2461 64.4828 40.807 59.7718C48.3101 56.0747 58.3226 54.3543 69.7474 54.2262C78.4383 54.1287 83.5674 54.5761 91.8993 56.999C96.8936 58.4513 101.546 59.7718 104.762 61.6203C107.977 63.4688 113.163 66.1464 118.696 69.0144C122.063 70.76 123.779 72.3641 127.271 73.6357C130.804 74.9223 136.56 75.4843 136.56 75.4843M208.018 59.3095C205.16 56.0746 201.437 54.7643 203.373 46.832C204.84 40.8241 211.829 40.362 218.022 40.8242M208.018 59.3095C208.018 59.3095 214.658 61.9055 218.737 61.6202C223.674 61.2747 227.477 60.0708 231.242 57.4609C235.006 54.851 237.329 53.1709 239.817 48.6804C241.599 45.463 242.393 44.7425 241.96 40.8242C241.246 34.3544 236.938 30.5245 231.956 27.4224C222.309 21.4148 217.561 20.9408 208.018 21.4147C203.698 21.6292 200.554 22.1737 197.657 23.2494M174.433 46.3699L178.72 38.5137C178.72 38.5137 182.736 32.5609 188.01 28.8089C191.712 26.1755 194.542 24.4056 197.657 23.2494M174.433 46.3699C172.646 44.2133 167.806 42.1275 163.357 40.8243C161.252 40.2078 158.681 40.0076 156.345 39.9905M136.56 75.4843C133.255 74.7456 130.844 74.0979 128.343 72.2493C124.123 69.1308 123.341 66.7038 122.983 60.696C122.707 56.0523 126.199 50.9912 129.057 48.6806C132.464 45.9266 134.709 44.0896 138.704 42.2107C139.736 41.7254 140.989 41.3675 142.277 41.1036M136.56 75.4843C141.098 76.4982 143.843 76.6987 148.351 75.4843C151.245 74.7045 152.994 74.419 155.139 71.7872C157.041 69.4537 157.482 69.0479 157.64 66.7038C157.799 64.3569 157.138 62.6655 155.854 61.1315C154.135 59.0792 150.332 58.8686 147.994 58.8475C145.168 58.822 142.277 62.0824 142.277 62.0824M197.657 23.2494C196.108 18.7867 189.439 10.3236 178.72 5.24013C173.376 2.70557 172.05 2.55727 167.644 1.6849C160.334 0.237336 155.497 -0.0219455 148.708 1.68487C141.92 3.39168 140.848 2.92947 133.345 8.0129C128.888 11.0322 126.556 15.407 126.199 21.8769C125.842 28.3467 129.772 33.8923 134.774 37.1273C137.284 38.7508 142.277 41.1036 142.277 41.1036M142.277 41.1036C145.894 40.3622 149.78 40.3622 149.78 40.3622C149.78 40.3622 152.791 39.9645 156.345 39.9905M156.345 39.9905C158.325 40.2685 161.802 37.7643 163 33.8923C163.714 31.5817 163.537 29.6131 161.928 26.9604C159.801 23.4533 156.477 21.8676 152.996 21.4148C151.047 21.1613 147.994 21.4147 147.994 21.4147" stroke="#CECBBD" stroke-opacity="0.5"/>
</svg>
