<svg width="164" height="74" viewBox="0 0 164 74" fill="none" xmlns="http://www.w3.org/2000/svg">
<path d="M163.5 47.7477C153.152 47.7477 147.858 44.9365 136.306 45.8734C125.958 47.7477 111.76 54.6197 95.3953 63.6784C80.9561 71.6713 66.5169 75.8607 54.2436 72.1123C44.5139 70.0223 37.5502 64.7767 32.5849 61.1794C28.9751 59.6176 20.3116 47.1229 23.4401 40.2509M163.5 47.7477C163.5 47.7477 154.96 46.9445 149.542 45.8734C144.331 44.8432 138.212 42.9748 136.306 42.7499C130.531 42.0684 122.108 43.3746 122.108 43.3746C122.108 43.3746 111.519 44.9364 103.577 48.0601C97.2242 50.5592 88.1757 56.1817 88.1757 56.1817C88.1757 56.1817 82.0388 59.9776 77.8276 61.1796C73.0467 62.5442 69.1641 62.7414 65.3136 62.1167C61.2225 61.4529 56.8908 60.5041 52.7997 58.3683C49.4037 56.5953 46.6584 54.9322 44.8582 52.7457C42.479 49.8559 40.5264 48.0601 40.5264 43.687C40.5264 39.3228 42.5318 34.9407 44.3769 33.3789L46.0614 31.5047M163.5 47.7477C155.318 46.4982 142.505 43.7476 136.066 40.5633C131.012 38.0644 124.268 36.9015 116.573 36.8149C110.719 36.749 107.264 37.0514 101.652 38.6891C98.2882 39.6708 95.1546 40.5633 92.9887 41.8128C90.8228 43.0623 87.33 44.8721 83.6033 46.8107C81.3351 47.9905 80.1797 49.0748 77.8276 49.9343C75.4479 50.804 71.5706 51.1838 71.5706 51.1838M23.4401 40.2509C25.3653 38.0643 27.873 37.1786 26.5685 31.817C25.5806 27.7561 20.8731 27.4438 16.7018 27.7561M23.4401 40.2509C23.4401 40.2509 18.9677 42.0056 16.2205 41.8127C12.8946 41.5792 10.3331 40.7654 7.79762 39.0013C5.26211 37.2373 3.69758 36.1016 2.02196 33.0664C0.82141 30.8917 0.286538 30.4046 0.578032 27.7561C1.05934 23.383 3.96113 20.7943 7.31631 18.6975C13.8139 14.6368 17.0121 14.3165 23.4401 14.6368C26.3499 14.7818 28.4673 15.1498 30.419 15.8769M46.0614 31.5047L43.1736 26.1944C43.1736 26.1944 40.469 22.1708 36.9166 19.6347C34.4233 17.8547 32.5168 16.6584 30.419 15.8769M46.0614 31.5047C47.2647 30.047 50.5248 28.6371 53.5217 27.7563C54.9395 27.3395 56.6712 27.2042 58.2448 27.1927M71.5706 51.1838C73.7971 50.6845 75.4211 50.2467 77.1056 48.9972C79.9476 46.8893 80.4748 45.2488 80.7154 41.1881C80.9014 38.0492 78.5495 34.6283 76.6243 33.0665C74.3297 31.205 72.8173 29.9633 70.1267 28.6934C69.4317 28.3653 68.5874 28.1234 67.7202 27.945M71.5706 51.1838C68.5145 51.8692 66.6653 52.0047 63.6291 51.1838C61.6795 50.6567 60.5015 50.4638 59.0567 48.6849C57.7756 47.1076 57.4787 46.8333 57.3721 45.2488C57.2654 43.6625 57.7102 42.5193 58.5754 41.4824C59.7329 40.0952 62.2944 39.9528 63.8697 39.9386C65.7726 39.9214 67.7202 42.1252 67.7202 42.1252M30.419 15.8769C31.4618 12.8605 35.954 7.14002 43.1736 3.70398C46.7732 1.9908 47.6666 1.89056 50.6338 1.3009C55.5574 0.322458 58.816 0.147204 63.3884 1.30088C67.9608 2.45456 68.6828 2.14214 73.7365 5.57817C76.7382 7.61901 78.3089 10.5761 78.5496 14.9492C78.7902 19.3223 76.143 23.0707 72.7739 25.2573C71.083 26.3547 67.7202 27.945 67.7202 27.945M67.7202 27.945C65.284 27.4439 62.6665 27.4439 62.6665 27.4439C62.6665 27.4439 60.6386 27.1751 58.2448 27.1927M58.2448 27.1927C56.911 27.3805 54.5688 25.6879 53.7623 23.0708C53.281 21.5089 53.4006 20.1783 54.4843 18.3852C55.9169 16.0147 58.1554 14.9429 60.5006 14.6368C61.8131 14.4655 63.8697 14.6368 63.8697 14.6368" stroke="#CECBBD" stroke-opacity="0.5"/>
</svg>
