<svg width="243" height="109" viewBox="0 0 243 109" fill="none" xmlns="http://www.w3.org/2000/svg">
<path d="M242.5 70.4007C227.137 70.4007 219.276 66.2416 202.126 67.6278C186.763 70.4007 165.683 80.5675 141.387 93.9694C119.95 105.795 98.5128 111.993 80.2911 106.447C65.8457 103.355 55.5071 95.5942 48.1352 90.2723C42.7758 87.9616 29.9135 69.4764 34.5582 59.3095M242.5 70.4007C242.5 70.4007 229.82 69.2124 221.777 67.6278C214.04 66.1036 204.956 63.3394 202.126 63.0067C193.552 61.9984 181.046 63.931 181.046 63.931C181.046 63.931 165.326 66.2415 153.535 70.863C144.103 74.5601 130.669 82.8784 130.669 82.8784C130.669 82.8784 121.558 88.4942 115.305 90.2725C108.207 92.2914 102.443 92.5832 96.7264 91.6589C90.6525 90.6769 84.2213 89.2733 78.1474 86.1133C73.1055 83.4903 69.0296 81.0299 66.3569 77.7949C62.8247 73.5198 59.9257 70.863 59.9257 64.3931C59.9257 57.9365 62.9031 51.4534 65.6423 49.1427L68.1433 46.3699M242.5 70.4007C230.352 68.5522 211.33 64.4828 201.769 59.7718C194.266 56.0747 184.254 54.3543 172.829 54.2262C164.138 54.1287 159.009 54.5761 150.677 56.999C145.683 58.4513 141.03 59.7718 137.815 61.6203C134.599 63.4688 129.413 66.1464 123.88 69.0144C120.513 70.76 118.797 72.3641 115.305 73.6357C111.772 74.9223 106.016 75.4843 106.016 75.4843M34.5582 59.3095C37.4165 56.0746 41.1396 54.7643 39.203 46.832C37.7362 40.8241 30.7472 40.362 24.5542 40.8242M34.5582 59.3095C34.5582 59.3095 27.9183 61.9055 23.8396 61.6202C18.9019 61.2747 15.0989 60.0708 11.3345 57.4609C7.5701 54.851 5.24731 53.1709 2.75958 48.6804C0.97717 45.463 0.183064 44.7425 0.615835 40.8242C1.33041 34.3544 5.63859 30.5245 10.6199 27.4224C20.2667 21.4148 25.0149 20.9408 34.5582 21.4147C38.8783 21.6292 42.0219 22.1737 44.9196 23.2494M68.1433 46.3699L63.8559 38.5137C63.8559 38.5137 59.8405 32.5609 54.5664 28.8089C50.8646 26.1755 48.0342 24.4056 44.9196 23.2494M68.1433 46.3699C69.9298 44.2133 74.7699 42.1275 79.2193 40.8243C81.3243 40.2078 83.8953 40.0076 86.2315 39.9905M106.016 75.4843C109.321 74.7456 111.732 74.0979 114.234 72.2493C118.453 69.1308 119.236 66.7038 119.593 60.696C119.869 56.0523 116.377 50.9912 113.519 48.6806C110.112 45.9266 107.867 44.0896 103.872 42.2107C102.84 41.7254 101.587 41.3675 100.299 41.1036M106.016 75.4843C101.479 76.4982 98.7331 76.6987 94.2254 75.4843C91.3309 74.7045 89.582 74.419 87.4369 71.7872C85.5349 69.4537 85.0942 69.0479 84.9359 66.7038C84.7774 64.3569 85.4378 62.6655 86.7223 61.1315C88.4408 59.0792 92.2438 58.8686 94.5827 58.8475C97.4078 58.822 100.299 62.0824 100.299 62.0824M44.9196 23.2494C46.4678 18.7867 53.1372 10.3236 63.8559 5.24013C69.2001 2.70557 70.5265 2.55727 74.9318 1.6849C82.2417 0.237336 87.0796 -0.0219455 93.8681 1.68487C100.657 3.39168 101.728 2.92947 109.231 8.0129C113.688 11.0322 116.02 15.407 116.377 21.8769C116.735 28.3467 112.804 33.8923 107.802 37.1273C105.292 38.7508 100.299 41.1036 100.299 41.1036M100.299 41.1036C96.6824 40.3622 92.7962 40.3622 92.7962 40.3622C92.7962 40.3622 89.7855 39.9645 86.2315 39.9905M86.2315 39.9905C84.2514 40.2685 80.7739 37.7643 79.5766 33.8923C78.862 31.5817 79.0396 29.6131 80.6484 26.9604C82.7754 23.4533 86.0988 21.8676 89.5806 21.4148C91.5292 21.1613 94.5827 21.4147 94.5827 21.4147" stroke="#CECBBD" stroke-opacity="0.5"/>
</svg>
