<svg width="147" height="66" viewBox="0 0 147 66" fill="none" xmlns="http://www.w3.org/2000/svg">
<path d="M146.5 42.5698C137.231 42.5698 132.489 40.0667 122.142 40.901C112.874 42.5698 100.156 48.6888 85.4982 56.7547C72.565 63.8717 59.6317 67.602 48.6385 64.2644C39.9235 62.4034 33.6861 57.7327 29.2386 54.5296C26.0053 53.139 18.2453 42.0136 21.0475 35.8946M146.5 42.5698C146.5 42.5698 138.85 41.8547 133.998 40.901C129.33 39.9836 123.85 38.32 122.142 38.1198C116.969 37.5129 109.425 38.676 109.425 38.676C109.425 38.676 99.9403 40.0666 92.827 42.8481C87.1364 45.0732 79.0316 50.0796 79.0316 50.0796C79.0316 50.0796 73.5348 53.4595 69.7627 54.5298C65.4805 55.7448 62.0028 55.9204 58.5539 55.3642C54.8895 54.7731 51.0095 53.9284 47.3451 52.0265C44.3033 50.4478 41.8443 48.967 40.2318 47.0201C38.1008 44.4471 36.3519 42.8481 36.3519 38.9542C36.3519 35.0682 38.1482 31.1664 39.8007 29.7757L41.3096 28.1069M146.5 42.5698C139.171 41.4573 127.695 39.0082 121.927 36.1728C117.4 33.9477 111.36 32.9123 104.467 32.8352C99.2237 32.7765 96.1293 33.0458 91.1026 34.504C88.0895 35.3781 85.2826 36.1728 83.3427 37.2854C81.4027 38.3979 78.2741 40.0094 74.936 41.7355C72.9045 42.7861 71.8695 43.7516 69.7627 44.5169C67.6312 45.2912 64.1583 45.6294 64.1583 45.6294M21.0475 35.8946C22.772 33.9477 25.0181 33.1591 23.8497 28.385C22.9648 24.7691 18.7483 24.491 15.012 24.7692M21.0475 35.8946C21.0475 35.8946 17.0416 37.457 14.5809 37.2853C11.6019 37.0774 9.3076 36.3528 7.03652 34.782C4.76544 33.2113 3.36409 32.2001 1.86322 29.4975C0.787886 27.5611 0.308797 27.1274 0.56989 24.7692C1.001 20.8753 3.60015 18.5703 6.60541 16.7033C12.4254 13.0876 15.29 12.8023 21.0475 13.0876C23.6539 13.2167 25.5504 13.5444 27.2986 14.1918M41.3096 28.1069L38.723 23.3786C38.723 23.3786 36.3005 19.7959 33.1186 17.5378C30.8853 15.9528 29.1776 14.8876 27.2986 14.1918M41.3096 28.1069C42.3874 26.8089 45.3075 25.5536 47.9918 24.7693C49.2617 24.3982 50.8128 24.2777 52.2223 24.2675M64.1583 45.6294C66.1526 45.1848 67.6072 44.795 69.1161 43.6825C71.6617 41.8056 72.1338 40.3449 72.3494 36.7291C72.516 33.9342 70.4094 30.8882 68.685 29.4976C66.6297 27.8401 65.275 26.7345 62.865 25.6037C62.2425 25.3116 61.4863 25.0962 60.7095 24.9373M64.1583 45.6294C61.421 46.2397 59.7646 46.3604 57.0451 45.6294C55.2988 45.1601 54.2437 44.9883 52.9495 43.4043C51.8021 41.9999 51.5361 41.7557 51.4407 40.3449C51.345 38.9324 51.7435 37.9144 52.5184 36.9912C53.5552 35.756 55.8495 35.6292 57.2606 35.6165C58.9651 35.6012 60.7095 37.5635 60.7095 37.5635M27.2986 14.1918C28.2327 11.5059 32.2563 6.41234 38.723 3.35286C41.9472 1.82743 42.7474 1.73817 45.4051 1.21313C49.8152 0.341915 52.734 0.185866 56.8295 1.21311C60.925 2.24036 61.5717 1.96218 66.0983 5.02165C68.7869 6.83884 70.1939 9.47183 70.4094 13.3657C70.625 17.2596 68.2539 20.5972 65.2361 22.5442C63.7216 23.5213 60.7095 24.9373 60.7095 24.9373M60.7095 24.9373C58.5274 24.4911 56.1828 24.4911 56.1828 24.4911C56.1828 24.4911 54.3665 24.2518 52.2223 24.2675M52.2223 24.2675C51.0277 24.4347 48.9297 22.9276 48.2073 20.5972C47.7762 19.2066 47.8834 18.0218 48.854 16.4252C50.1372 14.3145 52.1423 13.3601 54.2429 13.0876C55.4184 12.9351 57.2606 13.0876 57.2606 13.0876" stroke="#CECBBD" stroke-opacity="0.5"/>
</svg>
