<svg width="197" height="108" viewBox="0 0 197 108" fill="none" xmlns="http://www.w3.org/2000/svg">
<path d="M159.527 58.765C164.569 68.8377 150.606 87.1518 144.788 89.4411C136.785 94.7137 125.561 102.403 109.879 105.466C90.0979 110.96 66.8257 104.82 43.5536 93.1039C27.7555 85.1508 13.2098 78.3477 0.5 73.5798V54.1196C3.3674 53.8885 6.34711 53.7602 9.42101 53.7287C18.8558 53.6321 24.4239 54.0754 33.4689 56.4758C38.8908 57.9147 43.9414 59.223 47.4323 61.0544C50.9231 62.8858 56.5527 65.5385 62.5592 68.38C66.2148 70.1094 68.0771 71.6987 71.8681 72.9586C75.7036 74.2332 81.9527 74.79 81.9527 74.79M159.527 58.765C156.424 55.56 152.382 54.2618 154.484 46.403C156.077 40.4507 163.664 39.9929 170.387 40.4508M159.527 58.765C159.527 58.765 166.735 61.3369 171.163 61.0542C176.523 60.712 180.652 59.5192 184.738 56.9335C188.825 54.3478 191.346 52.6832 194.047 48.2343C195.982 45.0467 196.844 44.3328 196.374 40.4508C195.599 34.0409 190.922 30.2465 185.514 27.1731C175.041 21.2211 169.887 20.7515 159.527 21.221C154.837 21.4336 151.424 21.973 148.278 23.0387M123.067 45.9452L127.721 38.1617C127.721 38.1617 132.08 32.264 137.806 28.5468C141.825 25.9377 144.897 24.1842 148.278 23.0387M123.067 45.9452L125.782 48.6923C128.756 50.9816 131.988 57.4046 131.988 63.8015C131.988 70.2114 128.841 72.8436 125.006 77.0792C122.105 80.2842 117.68 82.7218 112.207 85.3206C105.613 88.4513 98.6311 89.8419 92.0373 90.8148C85.8314 91.7305 79.5736 91.4414 71.8681 89.4413C65.0806 87.6794 55.1896 82.1156 55.1896 82.1156C55.1896 82.1156 40.6057 73.8744 30.366 70.2114C17.5663 65.6327 0.5 63.3436 0.5 63.3436M123.067 45.9452C121.128 43.8085 115.873 41.7421 111.043 40.451C108.758 39.8401 105.967 39.6418 103.43 39.6249M81.9527 74.79C78.3642 74.0581 75.7468 73.4164 73.0317 71.585C68.4512 68.4953 67.6015 66.0908 67.2136 60.1387C66.9138 55.5379 70.7044 50.5237 73.8074 48.2345C77.5057 45.506 79.9434 43.6859 84.2799 41.8245C85.4 41.3437 86.7608 40.9891 88.1586 40.7276M81.9527 74.79C86.8783 75.7945 89.8588 75.9932 94.7524 74.79C97.8946 74.0174 99.7932 73.7346 102.122 71.1271C104.187 68.8152 104.665 68.4132 104.837 66.0908C105.009 63.7656 104.292 62.0899 102.898 60.5701C101.032 58.5368 96.9036 58.3281 94.3645 58.3072C91.2975 58.282 88.1586 61.5122 88.1586 61.5122M148.278 23.0387C146.598 18.6174 139.357 10.2326 127.721 5.19624C121.92 2.68515 120.48 2.53822 115.697 1.67393C107.762 0.239768 102.51 -0.0171127 95.1402 1.67389C87.7707 3.3649 86.6071 2.90697 78.4618 7.94334C73.6239 10.9347 71.0923 15.269 70.7044 21.679C70.3166 28.0889 74.5831 33.5832 80.0133 36.7881C82.7385 38.3966 88.1586 40.7276 88.1586 40.7276M88.1586 40.7276C92.085 39.9931 96.3039 39.9931 96.3039 39.9931C96.3039 39.9931 99.5722 39.5991 103.43 39.6249M103.43 39.6249C105.58 39.9002 109.355 37.4192 110.655 33.5832C111.431 31.2939 111.238 29.3435 109.491 26.7153C107.182 23.2407 103.575 21.6698 99.7947 21.2211C97.6793 20.97 94.3645 21.221 94.3645 21.221" stroke="#CECBBD" stroke-opacity="0.5"/>
</svg>
