<svg width="170" height="85" viewBox="0 0 170 85" fill="none" xmlns="http://www.w3.org/2000/svg">
<path d="M141.68 38.7667C145.355 30.9532 135.177 16.747 130.936 14.9712C125.103 10.8812 116.922 4.91703 105.491 2.54072C91.0714 -1.72117 72.3488 0.327013 57.1439 12.13C41.1308 24.5603 1.63086 42.6733 1.63086 42.6733M141.68 38.7667C139.418 41.2528 136.472 42.2598 138.004 48.3559C139.165 52.9731 144.696 53.3282 149.596 52.973M141.68 38.7667C141.68 38.7667 146.934 36.7716 150.162 36.9909C154.069 37.2564 157.078 38.1817 160.057 40.1874C163.036 42.1931 164.874 43.4843 166.843 46.9354C168.253 49.408 168.882 49.9617 168.539 52.973C167.974 57.9452 164.565 60.8885 160.623 63.2725C152.989 67.8895 149.232 68.2537 141.68 67.8895C138.261 67.7247 135.774 67.3062 133.481 66.4796M115.103 48.711L118.496 54.7487C118.496 54.7487 121.674 59.3235 125.847 62.207C128.776 64.2308 131.016 65.591 133.481 66.4796M115.103 48.711L117.083 46.5801C119.25 44.8043 121.606 39.8219 121.606 34.8599C121.606 29.8877 119.312 27.8459 116.517 24.5603C114.402 22.0742 111.177 20.1833 107.187 18.1675C102.381 15.739 97.2915 14.6603 92.4851 13.9056C87.9614 13.1953 83.4 13.4195 77.7832 14.9711C72.8356 16.3377 65.6258 20.6536 65.6258 20.6536C65.6258 20.6536 56.575 26.009 50.6308 29.1773C44.2827 32.561 36.4173 34.5449 30.6309 36.6356C24.8444 38.7264 5.35929 42.397 1.63086 42.6733M115.103 48.711C113.69 50.3684 109.86 51.9714 106.339 52.9729C104.673 53.4467 102.639 53.6005 100.79 53.6137M85.1341 26.3361C82.5184 26.9038 80.6105 27.4016 78.6314 28.8222C75.2925 31.2189 74.6731 33.0841 74.3904 37.7011C74.1719 41.2699 76.935 45.1594 79.1968 46.9352C81.8926 49.0517 83.6695 50.4635 86.8305 51.9074C87.647 52.2804 88.6389 52.5554 89.6578 52.7583M85.1341 26.3361C88.7246 25.5568 90.8971 25.4027 94.4642 26.3361C96.7546 26.9354 98.1386 27.1548 99.836 29.1773C101.341 30.9707 101.69 31.2825 101.815 33.0841C101.941 34.8877 101.418 36.1876 100.401 37.3665C99.0416 38.9437 96.0323 39.1055 94.1815 39.1218C91.9458 39.1413 89.6578 36.6356 89.6578 36.6356M85.1341 26.3361C85.1341 26.3361 80.579 26.768 77.7832 27.7567C75.0199 28.734 73.6624 29.9668 70.9977 31.3083C66.6194 33.5125 62.5158 35.5702 59.9712 36.9908C57.4266 38.4114 53.7451 39.4262 49.7929 40.5424C43.1998 42.4044 39.1411 42.7483 32.2638 42.6733C27.5438 42.6219 5.618 43.4339 1.63086 42.6733M133.481 66.4796C132.256 69.9092 126.978 76.4133 118.496 80.32C114.267 82.2679 113.218 82.3818 109.732 83.0523C103.947 84.1647 100.119 84.364 94.7469 83.0523C89.3751 81.7406 88.5269 82.0958 82.5896 78.1891C79.0631 75.8687 77.2177 72.5065 76.935 67.5343C76.6523 62.5621 79.7623 58.3003 83.7205 55.8142C85.707 54.5665 89.6578 52.7583 89.6578 52.7583M89.6578 52.7583C92.5199 53.328 95.5951 53.3281 95.5951 53.3281C95.5951 53.3281 97.9775 53.6337 100.79 53.6137M100.79 53.6137C102.357 53.4001 105.109 55.3246 106.056 58.3003C106.622 60.076 106.481 61.5889 105.208 63.6276C103.525 66.3229 100.895 67.5415 98.1397 67.8895C96.5977 68.0843 94.1815 67.8895 94.1815 67.8895" stroke="#CECBBD" stroke-opacity="0.5"/>
</svg>
