<svg width="120" height="79" viewBox="0 0 120 79" fill="none" xmlns="http://www.w3.org/2000/svg">
<path d="M1.41878 12.7002C18.4057 4.13126 41.4637 -2.2914 55.9025 1.72713C67.349 3.96775 75.5414 9.59137 81.3828 13.4478C85.6296 15.1222 95.8217 28.5173 92.1412 35.8846M92.1412 35.8846C89.8763 38.2287 86.9261 39.1782 88.4607 44.9262C89.623 49.2797 95.1611 49.6146 100.068 49.2797M92.1412 35.8846C92.1412 35.8846 97.4027 34.0034 100.635 34.2102C104.547 34.4605 107.561 35.3329 110.544 37.2241C113.527 39.1153 115.367 40.3328 117.338 43.5868C118.751 45.9182 119.38 46.4403 119.037 49.2797C118.471 53.9679 115.057 56.7432 111.11 58.9911C103.466 63.3444 99.7034 63.6879 92.1412 63.3445C88.718 63.189 86.227 62.7945 83.9309 62.015M65.5284 45.261L68.9258 50.954C68.9258 50.954 72.1076 55.2676 76.2868 57.9864C79.2201 59.8947 81.4629 61.1772 83.9309 62.015M65.5284 45.261L67.5102 43.2518C69.6808 41.5774 72.0401 36.8795 72.0401 32.2008C72.0401 27.5125 69.7429 25.5873 66.944 22.4894C64.8261 20.1452 61.5964 18.3623 57.6012 16.4616C52.7883 14.1718 47.6922 13.1547 42.8792 12.4431C38.3494 11.7733 33.7817 11.9848 28.1573 13.4477C23.203 14.7363 15.9833 18.8057 15.9833 18.8057C15.9833 18.8057 8.89301 24.8334 1.41878 27.5125M65.5284 45.261C64.1128 46.8238 60.2775 48.3353 56.7519 49.2796C55.0839 49.7263 53.0466 49.8714 51.1954 49.8838M35.5183 24.1638C32.8989 24.6991 30.9884 25.1684 29.0066 26.5079C25.6632 28.7677 25.043 30.5264 24.7599 34.8798C24.541 38.2449 27.3079 41.9123 29.5728 43.5867C32.2723 45.5823 34.0516 46.9135 37.2169 48.2749C38.0346 48.6266 39.0278 48.886 40.0481 49.0772M35.5183 24.1638C39.1136 23.429 41.2891 23.2837 44.861 24.1638C47.1546 24.7288 48.5405 24.9357 50.2402 26.8428C51.7473 28.5337 52.0966 28.8278 52.222 30.5264C52.3476 32.227 51.8243 33.4527 50.8064 34.5643C49.4447 36.0514 46.4313 36.2041 44.5779 36.2194C42.3392 36.2378 40.0481 33.8752 40.0481 33.8752M35.5183 24.1638C35.5183 24.1638 30.9569 24.571 28.1573 25.5033C25.3902 26.4247 24.0309 27.5872 21.3625 28.852C16.9782 30.9303 12.8691 32.8706 10.321 34.2101C7.77301 35.5496 4.08645 36.5064 0.128903 37.5589M83.9309 62.015C82.704 65.2488 77.4192 71.3815 68.9258 75.0651C64.6911 76.9018 63.64 77.0092 60.1492 77.6414C54.3569 78.6903 50.5233 78.8782 45.1442 77.6414C39.765 76.4046 38.9156 76.7395 32.9702 73.0559C29.4389 70.868 27.591 67.6978 27.3079 63.0096C27.0248 58.3213 30.1391 54.3027 34.1027 51.9586C36.0919 50.7821 40.0481 49.0772 40.0481 49.0772M40.0481 49.0772C42.9141 49.6144 45.9935 49.6144 45.9935 49.6144C45.9935 49.6144 48.3792 49.9026 51.1954 49.8838M51.1954 49.8838C52.7644 49.6824 55.5199 51.497 56.4688 54.3027C57.035 55.9771 56.8942 57.4036 55.6194 59.3259C53.934 61.8673 51.3005 63.0163 48.5415 63.3444C46.9975 63.5281 44.5779 63.3445 44.5779 63.3445" stroke="#CECBBD" stroke-opacity="0.5"/>
</svg>
